<?xml version="1.0" standalone="no"?>
<!DOCTYPE svg PUBLIC "-//W3C//DTD SVG 20010904//EN"
 "http://www.w3.org/TR/2001/REC-SVG-20010904/DTD/svg10.dtd">
<svg version="1.0" xmlns="http://www.w3.org/2000/svg"
 width="477.000000pt" height="200.000000pt" viewBox="0 0 477.000000 200.000000"
 preserveAspectRatio="xMidYMid meet">

<g transform="translate(0.000000,200.000000) scale(0.100000,-0.100000)"
fill="#FFFFFF" stroke="none">
<path d="M315 1950 c-16 -4 -81 -8 -142 -9 -68 -1 -113 -5 -113 -11 0 -5 22
-10 50 -10 38 0 52 -4 60 -19 11 -21 15 -1167 4 -1195 -5 -12 -20 -16 -59 -16
-30 0 -57 -4 -60 -10 -4 -7 70 -10 214 -10 133 0 221 4 221 10 0 5 -26 10 -57
12 l-58 3 -3 633 c-2 496 -5 632 -15 631 -6 -1 -25 -5 -42 -9z"/>
<path d="M3715 1898 c-51 -27 -70 -94 -44 -151 28 -61 127 -74 178 -23 21 22
26 36 26 77 0 45 -4 54 -33 80 -35 31 -88 39 -127 17z"/>
<path d="M1888 1551 c-27 -24 -33 -36 -33 -71 0 -35 6 -47 34 -72 29 -26 39
-30 75 -25 52 7 86 44 86 93 0 46 -14 70 -50 89 -43 22 -76 18 -112 -14z"/>
<path d="M1525 1465 c-89 -27 -149 -77 -184 -155 -58 -127 19 -283 160 -324
82 -25 100 -20 55 15 -37 29 -50 82 -50 209 -1 136 6 175 40 225 14 21 24 39
22 40 -2 1 -21 -3 -43 -10z"/>
<path d="M2270 1464 c-109 -29 -179 -106 -165 -180 10 -55 45 -84 99 -84 62 0
100 33 100 85 0 38 -8 48 -65 87 -20 13 -22 19 -13 35 14 23 56 44 105 50 41
6 54 23 17 22 -13 0 -48 -7 -78 -15z"/>
<path d="M3155 1466 c-188 -60 -300 -241 -281 -454 12 -135 66 -236 160 -300
137 -92 348 -85 435 13 51 58 91 195 57 195 -9 0 -15 -16 -19 -45 -7 -66 -46
-135 -96 -170 -37 -26 -51 -30 -111 -30 -61 0 -72 3 -107 31 -55 44 -80 115
-94 263 -15 157 0 332 33 400 25 50 77 91 114 91 13 0 24 5 24 10 0 14 -66 11
-115 -4z"/>
<path d="M3835 1470 c-11 -5 -75 -9 -142 -9 -70 -1 -124 -5 -128 -11 -4 -6 11
-10 37 -10 83 0 79 21 76 -385 l-3 -360 -57 -3 c-32 -2 -58 -7 -58 -12 0 -6
86 -10 215 -10 129 0 215 4 215 10 0 5 -26 10 -57 12 l-58 3 -3 393 c-1 215
-6 392 -10 391 -4 0 -16 -4 -27 -9z"/>
<path d="M741 1440 c-139 -66 -211 -162 -233 -310 -14 -92 1 -202 38 -277 43
-88 164 -179 264 -197 l35 -7 -24 18 c-95 72 -104 105 -104 393 0 244 10 310
57 355 17 16 40 35 51 42 44 26 -19 13 -84 -17z"/>
<path d="M955 1455 c62 -44 75 -80 75 -208 0 -83 -10 -123 -33 -139 -6 -3 -41
-9 -79 -13 -122 -12 -61 -25 123 -25 l179 0 0 35 c0 47 -19 131 -41 182 -36
85 -157 183 -224 183 l-20 -1 20 -14z"/>
<path d="M1698 1447 c33 -35 42 -79 42 -212 0 -127 -10 -183 -41 -227 -26 -36
-24 -38 19 -26 97 26 182 106 202 189 18 73 0 136 -56 198 -44 49 -130 101
-168 101 -19 0 -19 -1 2 -23z"/>
<path d="M4259 1451 c-106 -41 -194 -126 -230 -220 -42 -112 -35 -280 16 -381
30 -59 112 -135 178 -165 96 -44 144 -44 75 0 -18 11 -40 34 -50 50 -49 85
-50 549 -2 651 10 21 30 42 51 52 33 16 44 32 21 32 -7 -1 -34 -9 -59 -19z"/>
<path d="M4463 1449 c50 -38 61 -73 62 -195 0 -140 -6 -149 -106 -159 -126
-13 -72 -25 111 -25 151 0 182 2 186 15 10 24 -15 145 -40 201 -13 28 -40 70
-60 92 -39 43 -125 92 -160 92 -19 -1 -18 -3 7 -21z"/>
<path d="M2510 1141 c0 -268 3 -328 16 -359 32 -79 111 -131 195 -132 84 0
108 43 109 193 0 62 -3 77 -15 77 -12 0 -15 -18 -15 -105 0 -99 -1 -105 -24
-120 -28 -19 -54 -10 -67 22 -5 13 -9 151 -9 307 0 272 -1 283 -22 326 -25 49
-85 96 -135 106 l-33 7 0 -322z"/>
<path d="M3380 1402 c-45 -22 -62 -56 -57 -110 8 -74 72 -115 143 -92 92 31
98 169 9 206 -44 18 -53 18 -95 -4z"/>
<path d="M2175 1091 c-49 -13 -72 -29 -97 -68 -21 -34 -23 -50 -23 -153 0
-164 24 -200 148 -220 59 -9 206 5 222 22 7 7 -3 9 -33 4 -58 -9 -104 12 -125
56 -21 44 -32 158 -22 233 9 78 36 105 104 105 27 0 53 5 56 10 4 6 -11 10
-38 10 -24 0 -71 2 -103 5 -32 2 -72 1 -89 -4z"/>
<path d="M1361 923 c-29 -35 -34 -62 -29 -138 3 -45 10 -70 23 -86 39 -43 72
-49 284 -49 311 0 346 -15 339 -142 -3 -55 -9 -75 -33 -109 -54 -76 -179 -129
-305 -129 -82 0 -131 14 -171 47 -41 35 -59 79 -59 145 0 53 28 118 50 118 5
0 10 5 10 11 0 8 -13 9 -41 5 -86 -14 -139 -60 -146 -130 -10 -84 37 -145 144
-187 78 -31 288 -34 372 -6 113 38 178 106 206 214 30 113 12 208 -49 269 -60
61 -94 67 -338 65 -134 -1 -215 2 -228 9 -24 13 -28 71 -5 90 8 7 15 16 15 21
0 17 -19 9 -39 -18z"/>
<path d="M1167 856 c-32 -94 -109 -169 -186 -182 -56 -9 -70 -17 -38 -22 39
-5 111 21 157 58 55 44 125 190 91 190 -5 0 -16 -20 -24 -44z"/>
<path d="M4674 883 c-39 -126 -131 -213 -224 -213 -19 0 -30 -5 -30 -14 0 -11
9 -12 45 -5 65 12 117 42 163 94 34 39 72 116 72 147 0 15 -21 8 -26 -9z"/>
</g>
</svg>
